<svg xmlns="http://www.w3.org/2000/svg" width="139px" height="27px" viewBox="0 0 139 27"> <path d="M35.78 8.459c-2.582.004-4.674 2.124-4.676 4.738.001 2.615 2.093 4.736 4.676 4.74a4.611 4.611 0 0 0 3.304-1.39l.158-.16 1.576 1.598-.158.16a6.808 6.808 0 0 1-4.88 2.049c-3.807 0-6.903-3.139-6.903-6.997 0-3.857 3.096-6.996 6.903-6.996 1.843 0 3.577.729 4.88 2.05l.158.16-1.576 1.596-.158-.159a4.613 4.613 0 0 0-3.304-1.39zm19.957 4.776c0-2.616-2.094-4.736-4.677-4.74-2.582.005-4.673 2.124-4.675 4.739.001 2.615 2.093 4.735 4.675 4.74 2.58 0 4.677-2.127 4.677-4.74zM51.06 6.238c3.807 0 6.903 3.14 6.903 6.997 0 3.858-3.096 6.996-6.903 6.996-3.806 0-6.902-3.138-6.902-6.996 0-3.858 3.096-6.997 6.902-6.997zm22.936 10.405V6.239h2.227v13.993h-2.105l-9.474-11.08v11.077h-2.227V6.237h2.68l8.899 10.406zm49.397-10.404l-5.265 6.983 5.285 7.01h-2.802l-3.883-5.151-3.884 5.15h-2.803l5.285-7.01-5.264-6.982h2.802l3.864 5.125 3.862-5.124h2.803zm-31.611 0l-1.285 2.258h-3.168v11.734h-2.227V8.495h-4.453V6.24h11.133zm47.218 0l-1.286 2.258h-3.168v11.734h-2.227V8.495h-4.453V6.24H139zM98.461 8.497v3.61h5.84v2.258h-5.84v3.61h7.126v2.256h-9.352V6.238h9.352l-1.286 2.258h-5.84v.001zm-85.9 8.853a4.727 4.727 0 0 0 2.182-2.887l2.14.581c-.72 2.733-2.996 4.756-5.765 5.125-2.769.369-5.484-.99-6.878-3.44-1.905-3.345-.775-7.62 2.526-9.554a6.802 6.802 0 0 1 5.237-.699l-.573 2.17a4.62 4.62 0 0 0-3.558.471c-2.242 1.315-3.01 4.219-1.717 6.492 1.296 2.27 4.163 3.05 6.406 1.74zm2.677 3.578l1.697 2.979-.958.56-1.137-1.998a10.036 10.036 0 0 1-4.07 1.095v2.315h1.613l.64 1.121h-5.61l.637-1.12h1.614v-2.32a10.19 10.19 0 0 1-8.297-5.148C-1.358 13.629.123 7.535 4.637 4.557L3.497 2.56 4.456 2l1.697 2.978c-.165.084-.33.162-.494.256C1.31 7.78-.188 13.44 2.324 17.85c2.513 4.41 8.097 5.927 12.45 3.382.16-.095.31-.203.464-.305z" fill="#fff" fill-rule="evenodd"></path> </svg>