<svg fill="#D1B45F" viewBox="0 0 100 100" version="1.1" xml:space="preserve" xmlns="http://www.w3.org/2000/svg" xmlns:xlink="http://www.w3.org/1999/xlink"><g id="SVGRepo_bgCarrier" stroke-width="0"></g><g id="SVGRepo_tracerCarrier" stroke-linecap="round" stroke-linejoin="round"></g><g id="SVGRepo_iconCarrier"> <g id="network"></g> <g id="connection"></g> <g id="page"></g> <g id="support"></g> <g id="configuration"></g> <g id="cloud_storage"></g> <g id="password"></g> <g id="search_engine"></g> <g id="history"></g> <g id="SEO"></g> <g id="optimization"></g> <g id="backlink"></g> <g id="performance"></g> <g id="analytics"> <g> <path d="M95.9,22.1c-0.1-0.3-0.4-0.5-0.7-0.5L78.2,19c-0.4-0.1-0.7,0.1-1,0.4c-0.2,0.3-0.3,0.7-0.1,1l2.7,5.5l-22,12.3 c-1.2,0.7-2.6,0.8-4,0.4c-1.3-0.4-2.4-1.3-3.1-2.6l-4.1-8.1c-1.5-3-4.1-5.2-7.3-6.2c-3.2-1-6.5-0.7-9.5,0.8L6.4,34.9 c-1.9,1-2.8,3.2-2.2,5.3c0.4,1.3,1.3,2.4,2.6,3c1.3,0.5,2.7,0.5,3.9-0.2l21.9-12c1.2-0.7,2.6-0.8,3.9-0.4c1.3,0.4,2.4,1.3,3,2.6 l4,8c1.5,3,4.1,5.3,7.4,6.3c1.2,0.4,2.4,0.6,3.7,0.6c2,0,4.1-0.5,5.9-1.5l23.1-12.8l2.1,4.2c0.2,0.3,0.5,0.5,0.9,0.6 c0.3,0,0.7-0.2,0.9-0.5l8.4-14.9C96,22.8,96,22.4,95.9,22.1z M86.7,35.4L85,31.9c-0.1-0.2-0.3-0.4-0.6-0.5 c-0.3-0.1-0.5-0.1-0.8,0.1l-24,13.3c-2.5,1.4-5.3,1.7-8,0.8c-2.7-0.8-4.9-2.7-6.2-5.3l-4-8c-0.9-1.7-2.4-3-4.2-3.6 c-0.7-0.2-1.4-0.3-2.1-0.3c-1.2,0-2.3,0.3-3.4,0.9l-21.9,12c-0.7,0.4-1.5,0.4-2.2,0.1c-0.7-0.3-1.3-0.9-1.5-1.7 c-0.3-1.2,0.2-2.4,1.3-3L31,24.2c2.5-1.3,5.3-1.5,7.9-0.7c2.7,0.9,4.8,2.7,6.1,5.2l4.1,8.1c0.9,1.8,2.4,3,4.3,3.6 c1.9,0.6,3.8,0.4,5.5-0.6l22.8-12.7c0.5-0.3,0.6-0.8,0.4-1.3l-2.3-4.6l13.6,2.1L86.7,35.4z"></path> <path d="M17,46H5c-0.6,0-1,0.4-1,1v33c0,0.6,0.4,1,1,1h12c0.6,0,1-0.4,1-1V47C18,46.4,17.6,46,17,46z M16,79H6V48h10V79z"></path> <path d="M61,51H49c-0.6,0-1,0.4-1,1v28c0,0.6,0.4,1,1,1h12c0.6,0,1-0.4,1-1V52C62,51.4,61.6,51,61,51z M60,79H50V53h10V79z"></path> <path d="M39,36H27c-0.6,0-1,0.4-1,1v43c0,0.6,0.4,1,1,1h12c0.6,0,1-0.4,1-1V37C40,36.4,39.6,36,39,36z M38,79H28V38h10V79z"></path> <path d="M83,44H71c-0.6,0-1,0.4-1,1v35c0,0.6,0.4,1,1,1h12c0.6,0,1-0.4,1-1V45C84,44.4,83.6,44,83,44z M82,79H72V46h10V79z"></path> </g> </g> <g id="security"></g> <g id="dark_web"></g> <g id="video_player"></g> <g id="upload_download"></g> <g id="incognito_tab"></g> <g id="bookmark"></g> </g></svg>