<?xml version="1.0" encoding="UTF-8"?>
<!-- Generator: Adobe Illustrator 26.2.1, SVG Export Plug-In . SVG Version: 6.00 Build 0)  -->
<svg xmlns="http://www.w3.org/2000/svg" xmlns:xlink="http://www.w3.org/1999/xlink" version="1.1" id="Слой_1" x="0px" y="0px" viewBox="0 0 878.7 398.1" style="enable-background:new 0 0 878.7 398.1;" xml:space="preserve">
<style type="text/css">
	.st0{fill:#FFFFFF;}
	.st1{fill-rule:evenodd;clip-rule:evenodd;fill:#FFFFFF;}
</style>
<g>
	<path class="st0" d="M36.1,374.8v-47.1H18.4v-7.3h43.5v7.3H44.3v47.1H36.1z"></path>
	<path class="st0" d="M77.5,320.4v22.4h28.7v-22.4h8.2v54.4h-8.2v-24.8H77.5v24.8h-8.2v-54.4H77.5z"></path>
	<path class="st0" d="M156.9,350.1h-21.4v17.4h22.1v7.3h-30.3v-54.4h30.3v7.3h-22.1v15h21.4V350.1z"></path>
	<path class="st0" d="M232,320.4v56.5l-38.2-43.8v41.7h-8.2v-54.4h7.2l31.1,36v-36H232z"></path>
	<path class="st0" d="M253.1,374.8h-8.2v-54.4h8.2V374.8z"></path>
	<path class="st0" d="M310.3,374.8l-1.5-8.6c-1.6,3-4.1,5.4-7.4,7c-3.3,1.6-7,2.5-11.2,2.5c-7.9,0-14.4-2.7-19.6-8.1   c-5.2-5.4-7.8-12.2-7.8-20.4c0-8.1,2.8-14.9,8.3-20.2c5.5-5.3,12.3-8,20.1-8c5.7,0,10.8,1.6,15.2,4.7c4.4,3.1,7.5,7.3,9.3,12.4   h-9.4c-1.2-3-3.2-5.4-6-7.1c-2.8-1.7-5.9-2.6-9.3-2.6c-5.5,0-10.1,1.9-13.8,5.8c-3.8,3.8-5.6,8.9-5.6,15.1c0,6.3,1.8,11.4,5.4,15.3   c3.6,3.9,8.3,5.8,14.3,5.8c5,0,9-1.4,12.1-4.3c3.1-2.9,4.6-6.6,4.6-11.2v-0.6h-14.1v-7.2h22.2v29.6H310.3z"></path>
	<path class="st0" d="M335,320.4v22.4h28.7v-22.4h8.2v54.4h-8.2v-24.8H335v24.8h-8.2v-54.4H335z"></path>
	<path class="st0" d="M396.9,374.8v-47.1h-17.6v-7.3h43.5v7.3h-17.6v47.1H396.9z"></path>
	<path class="st0" d="M438.3,327.7v15h22.1v7.3h-22.1v24.8h-8.2v-54.4h31v7.3H438.3z"></path>
	<path class="st0" d="M468.4,374.8h-8.3l25.3-56.9l25.5,56.9h-8.7l-6.2-14.3h-21.4L468.4,374.8z M477.7,353.4h15.2l-7.6-17.4   L477.7,353.4z"></path>
	<path class="st0" d="M517.5,374.8v-54.4h8.2v47.1h22.1v7.3H517.5z"></path>
	<path class="st0" d="M555.5,374.8v-54.4h8.2v47.1h22.1v7.3H555.5z"></path>
	<path class="st0" d="M652.4,374.8l-1.5-8.6c-1.6,3-4.1,5.4-7.4,7c-3.3,1.6-7,2.5-11.2,2.5c-7.9,0-14.4-2.7-19.6-8.1   c-5.2-5.4-7.8-12.2-7.8-20.4c0-8.1,2.8-14.9,8.3-20.2c5.5-5.3,12.3-8,20.1-8c5.7,0,10.8,1.6,15.2,4.7c4.4,3.1,7.5,7.3,9.3,12.4   h-9.4c-1.2-3-3.2-5.4-6-7.1c-2.8-1.7-5.9-2.6-9.3-2.6c-5.5,0-10.1,1.9-13.8,5.8s-5.6,8.9-5.6,15.1c0,6.3,1.8,11.4,5.4,15.3   c3.6,3.9,8.3,5.8,14.3,5.8c5,0,9-1.4,12.1-4.3c3.1-2.9,4.6-6.6,4.6-11.2v-0.6H636v-7.2h22.2v29.6H652.4z"></path>
	<path class="st0" d="M701.4,336.2c0,6.6-3.4,11.1-10.2,13.6l19.5,25h-9.9l-18.1-23h-5.5v23H669v-54.4H682c6.5,0,11.4,1.5,14.6,4.5   C699.8,327.8,701.4,331.6,701.4,336.2z M682,327.7h-4.8v16.9h4.8c3.4,0,6-0.7,8-2.1c1.9-1.4,2.9-3.5,2.9-6.4c0-2.9-1-5-2.9-6.4   C688,328.4,685.4,327.7,682,327.7z"></path>
	<path class="st0" d="M718,367.6c-5.4-5.4-8.2-12.2-8.2-20.1c0-8,2.7-14.7,8.2-20.1c5.4-5.4,12.2-8.2,20.3-8.2   c8.1,0,14.8,2.7,20.3,8.2c5.4,5.4,8.2,12.2,8.2,20.1c0,8-2.7,14.7-8.2,20.1c-5.4,5.4-12.2,8.2-20.3,8.2   C730.2,375.8,723.5,373.1,718,367.6z M752.4,332.5c-3.7-3.9-8.4-5.9-14.1-5.9c-5.7,0-10.4,2-14.1,5.9c-3.7,3.9-5.6,8.9-5.6,15   c0,6,1.9,11,5.6,15c3.7,3.9,8.4,5.9,14.1,5.9c5.7,0,10.4-2,14.1-6c3.7-4,5.6-9,5.6-15C758,341.4,756.1,336.4,752.4,332.5z"></path>
	<path class="st0" d="M797.4,368.3c4.1,0,7.3-1.2,9.7-3.5c2.4-2.3,3.6-5.6,3.6-9.8v-34.5h8.2v35.1c0,6.2-2,11.2-5.9,14.8   c-3.9,3.7-9.2,5.5-15.7,5.5c-6.5,0-11.7-1.8-15.6-5.5c-3.9-3.7-5.9-8.6-5.9-14.8v-35.1h8.2V355c0,4.2,1.2,7.5,3.6,9.8   C790,367.1,793.3,368.3,797.4,368.3z"></path>
	<path class="st0" d="M846.8,352.6h-7.3v22.2h-8.2v-54.4h15.5c6.5,0,11.4,1.5,14.6,4.6s4.8,6.9,4.8,11.5c0,4.6-1.6,8.5-4.8,11.5   C858.2,351.1,853.3,352.6,846.8,352.6z M839.5,327.7v17.6h7.2c3.4,0,6.1-0.7,8-2.2c1.9-1.5,2.9-3.7,2.9-6.6c0-3-1-5.2-2.9-6.6   c-1.9-1.5-4.6-2.2-8-2.2H839.5z"></path>
</g>
<g>
	<path class="st1" d="M514.7,8.9c24,0,44.7,5,62,14.9c17.3,10,28.4,15,33.2,15c6.6-0.3,13.9-8.1,22.1-23.3h7l1.6,116.3h-5.5   c-11-39.5-26.2-68.5-45.8-86.9c-19.5-18.3-42.1-27.6-67.6-27.6c-17.1,0-33,8.1-47.5,24.3c-19.6,21.8-21.2,80.7-21.2,80   c-7.2,0.1-7.2,0.1-7.2,0.1v-16.1c0-36.4-5.1-60.3-15.1-71.9c-10.1-11.6-22.9-17.4-38.3-17.4V8.9C433.3,8.9,474.7,8.9,514.7,8.9   L514.7,8.9z M199,8.9v7.5c15.7,0,27.9,3.7,36.5,11.1c8.6,7.4,12.9,22.6,12.9,45.8v130.2c0,29.1-5.7,47.6-17.2,55.3   c-11.4,7.7-23.7,11.6-36.7,11.6v7.5h123v-7.5c-19.3,0-34.6-4.1-45.8-12.2c-11.3-8.1-16.8-29.5-16.8-64.1V43l169.9,198.8l0-0.1   c1.8,2.3,3.7,4.5,5.7,6.7c24.6,27.1,57.8,40.6,99.8,40.6c18,0,33.6-3.6,47.1-10.6c13.4-7,24.9-10.6,34.5-10.6   c8.9,0,17.3,4.4,25,13.3h6.2V233c0-27.4,3.9-45,11.6-52.7c7.7-7.8,19.3-11.6,34.6-11.6v-7.3H534.4v7.3h6.6c18,0,31.6,3.1,40.8,9.3   c9.2,6.1,13.8,22,13.8,47.3c0,18.7-5.7,32.6-17.2,42c-11.5,9.3-26.3,13.9-44.4,13.9c-55.1,0-58-53.4-78.3-78.9   C422.7,160.7,337.7,60.9,293.4,8.9H199z"></path>
</g>
</svg>
