<?xml version="1.0" encoding="utf-8"?>
<!-- Generator: Adobe Illustrator 24.1.0, SVG Export Plug-In . SVG Version: 6.00 Build 0)  -->
<svg fill="#ffffff" version="1.1" id="Layer_1" xmlns="http://www.w3.org/2000/svg" xmlns:xlink="http://www.w3.org/1999/xlink" x="0px" y="0px"
	 viewBox="0 0 330.2 28.5" style="enable-background:new 0 0 330.2 28.5;" xml:space="preserve">
<path d="M298,20.9V0.3h4.3v27.5c-1.4,0-2.7,0.1-4.1,0c-0.4,0-0.8-0.5-1.1-0.8c-5-6.2-10.1-12.4-15.1-18.6l-1-1.3v20.7
	c-2.5,0-4.9,0-7.3,0c-0.3,0-0.7-0.5-0.8-0.8c-0.9-2-1.8-4-2.6-6.1c-0.2-0.6-0.8-0.9-1.4-0.8c-3.7,0-7.4,0-11.2,0
	c-0.6-0.1-1.1,0.3-1.3,0.8c-0.9,2.1-1.9,4.1-2.9,6.2c-0.2,0.4-0.5,0.6-0.9,0.7c-7,0-14,0-21.1,0v-26l-0.3-0.1
	c-1.4,1.7-2.9,3.4-4.3,5.2c-2.3,2.8-4.7,5.6-6.9,8.4c-0.4,0.6-0.7,1.3-0.7,2c-0.1,3.4,0,6.9,0,10.4H215v-3.4c0-2.4,0-4.9,0-7.3
	c0-0.5-0.1-0.9-0.4-1.3c-3.7-4.6-7.5-9.2-11.3-13.7c0-0.1-0.1-0.1-0.3-0.2v25.9h-4.4V15.8h-16.8v11.9h-4.3V0.4h4.2v11.1h16.7V0.4
	c2.9,0,5.7,0,8.5,0.1c0.4,0,0.9,0.7,1.3,1.1c2.7,3.3,5.4,6.6,8,9.8c0.3,0.3,0.5,0.6,0.8,0.9c3.1-3.7,6.2-7.4,9.3-11.1
	c0.5-0.6,1.2-1,2-0.9c2.4,0.1,4.9,0,7.4,0v23.4c0.4,0,0.7,0.1,1,0.1c4.2,0,8.4,0,12.6,0c0.6,0.1,1.2-0.3,1.5-0.9
	c3.3-7.2,6.7-14.3,10-21.5c0.3-0.8,1.1-1.3,2-1.3c1.9-0.2,2.7,0.5,3.4,2.2c3.1,7.1,6.4,14.2,9.6,21.3c0.1,0.4,0.4,0.7,0.7,1V0.3
	c1.4,0,2.8-0.1,4.1,0c0.4,0,0.8,0.5,1.1,0.8c4.9,6,9.9,12,14.8,18.1C297,19.8,297.4,20.2,298,20.9z M268,16c-1.5-3.5-3-6.8-4.6-10.4
	L258.7,16H268z"/>
<path d="M157.1,12.7c1.9,2,3.7,4,5.8,6.2c0.9-1.1,1.7-2,2.5-3.1c0.3-0.6,0.9-0.9,1.6-0.8c1,0.1,2,0,3.2,0c-0.9,2.8-2.9,4.7-4.8,7.1
	l6.2,5.5l-0.3,0.4c-1.7,0-3.5,0-5.2,0c-0.3,0-0.6-0.4-0.9-0.6c-0.9-0.9-1.9-1.8-2.8-2.7c-1.9,1.9-4.4,3.1-7,3.6
	c-2.5,0.5-5.2,0.1-7.5-1c-5.2-2.7-6-8.9-1.7-12.8c1.2-1.1,2.6-2,4-3c-0.4-0.5-0.8-1-1.2-1.6c-3-4.1-1.5-8.4,3.5-9.6
	c2-0.5,4.1-0.4,6,0.4c2.8,1.2,4.2,4.4,3,7.3c-0.3,0.6-0.7,1.2-1.1,1.7C159.4,10.9,158.2,11.8,157.1,12.7z M159.7,21.7
	c-1.7-1.8-3.4-3.6-5.1-5.4c-1.7-1.8-1.7-1.8-3.7-0.3c-1.1,0.7-2,1.8-2.7,2.9c-1.1,2.6,1.3,5.5,4.4,5.7
	C155.6,24.9,157.7,23.5,159.7,21.7L159.7,21.7z M154.2,9.8c0.9-0.6,1.7-1.2,2.4-2c0.5-0.7,0.8-1.6,0.7-2.4c-0.2-1.1-1.3-1.4-2.4-1.5
	c-0.6,0-1.1,0-1.6,0.2c-1,0.2-1.6,1.1-1.5,2.1c0,0.3,0.1,0.5,0.3,0.7C152.8,7.9,153.5,8.9,154.2,9.8L154.2,9.8z"/>
<path d="M129.7,20.6V0.4h4.2v27.4c-1.4,0-2.8,0.1-4.1,0c-0.4,0-0.8-0.5-1-0.9c-4.9-6-9.8-12.1-14.7-18.2l-1.3-1.6v20.6h-4.3V0.3
	c1.4,0,2.8,0,4.1,0c0.3,0,0.7,0.5,0.9,0.8c5.1,6.2,10.1,12.5,15.2,18.7c0.2,0.3,0.5,0.6,0.8,0.9L129.7,20.6z"/>
<path d="M303.9,27.8V0.3c1.9,0,3.6,0,5.4,0c3.2-0.1,6.3,0,9.5,0.3c10.9,1.6,13,12.3,10.3,19.1c-1.9,4.8-5.6,7.2-10.6,7.9
	c-1,0.1-2,0.2-3,0.2C311.7,27.8,307.9,27.8,303.9,27.8z M308.2,23.9c3.3,0,6.6-0.2,9.9-0.6c5-0.8,7.7-4.4,7.7-9.3
	c0-4.9-2.9-8.5-7.9-9.3c-2.3-0.3-4.7-0.4-7-0.3c-0.9,0-1.8,0-2.7,0V23.9z"/>
<path d="M90.8,0.3c8.1,0,13.3,3.5,15,9.3c3.1,9.8-4,18.8-14.2,18.2c-4.6-0.3-8.6-1.7-11.2-5.6c-3.1-4.3-3.5-10.1-0.9-14.8
	C81.6,3,86,0.3,90.8,0.3z M92.2,4.3c-5.8,0-9.9,4-10,9.7s4.1,9.8,10,9.8s9.9-4,10-9.7C102.3,8.4,98.1,4.3,92.2,4.3L92.2,4.3z"/>
<path d="M4.2,11.6h16.7V0.4h4.3v27.3H21V15.9H4.3v11.8H0V0.4h4.2V11.6z"/>
<path d="M79,0.3v3.9h-9.5v23.5h-4.3V4.4h-9.6v-4L79,0.3z"/>
<path d="M60.6,23.7v4H39.9V0.4h4.2v23.3H60.6z"/>
<path d="M30.5,0.3H35v27.4h-4.5V0.3z"/>
</svg>
