<?xml version="1.0" encoding="UTF-8"?>
<svg width="220px" height="40px" viewBox="0 0 220 40" version="1.1" xmlns="http://www.w3.org/2000/svg" xmlns:xlink="http://www.w3.org/1999/xlink">
    <title>Artboard</title>
    <g id="Artboard" stroke="none" stroke-width="1" fill="none" fill-rule="evenodd">
        <g id="Group-32" transform="translate(0.000000, 3.000000)" fill="#ffffff">
            <g id="Group-148">
                <path d="M48.1980071,21.7752178 L48.1980071,21.7752178 C50.3068072,20.8844059 51.9843544,19.5947585 53.230409,17.9069923 C54.4769431,16.2201813 55.0997307,14.0870091 55.0997307,11.508192 L55.0997307,11.4129014 C55.0997307,8.13433124 54.1092156,5.53903536 52.1281853,3.62916317 C51.0094209,2.48280997 49.5557704,1.59199801 47.7662749,0.955055509 C45.9762999,0.318113013 43.7883929,0 39.1498478,0 L27.0910689,0 L31.329045,8.02232298 L32.5830104,8.02232298 L40.7204807,8.02232298 C42.2858399,8.02232298 43.5163128,8.34927247 44.4111805,9.00102202 C45.3053289,9.65420452 45.753362,10.6486659 45.753362,11.9856003 L45.753362,12.080891 C45.753362,13.2917265 45.3218695,14.2537079 44.4588844,14.9701787 C43.5961389,15.6864106 42.365666,16.044646 40.7684243,16.044646 L34.6330795,16.044646 L44.0293095,33.9024406 L56.3153412,33.9024406 L48.1980071,21.7752178 Z" id="Fill-140"></path>
                <path d="M25.9310251,16.1247713 C23.5089135,14.3527003 20.6418851,13.5156236 17.6883185,13.1492683 C16.0311474,12.9434023 11.0744964,12.6226623 11.1442544,10.0137534 C11.1576786,9.50720861 11.3578432,9.12962852 11.6718739,8.84805552 C12.5823232,8.03080122 14.449008,8.02244239 15.4819532,8.02244239 L21.5693544,8.02244239 L27.9393833,8.02244239 L28.3854987,8.02244239 L29.3112899,8.02244239 L26.4677539,2.63935883 L25.0733138,0.000119411791 L15.0022773,0.000119411791 C12.4140411,0.000119411791 10.2258943,0.318232425 8.43615908,0.954936097 C6.64666352,1.59187859 5.19301302,2.48269056 4.07424868,3.62904376 C3.60847643,4.07827092 3.20239398,4.56857573 2.84593318,5.09350997 C2.71336908,5.32946767 2.58152413,5.56590302 2.46885662,5.81451837 C1.87699266,7.11730101 1.58165997,8.54737663 1.58165997,10.1045064 L1.58165997,10.1995582 C1.58165997,11.9159833 1.9093546,13.3541789 2.56450414,14.5136674 C3.21917425,15.6738723 4.11404189,16.6432573 5.24862761,17.4215833 C6.38225447,18.200387 7.7170048,18.8361354 9.25096087,19.328112 C10.7849169,19.820805 12.4459236,20.2738534 14.2358986,20.6863017 C15.386066,20.9408877 16.3209665,21.1871148 17.0396414,21.4259383 C17.3925064,21.5429619 17.7096534,21.661896 17.9932399,21.7827408 C18.2876138,21.9081232 18.5455504,22.0354161 18.7651322,22.1646197 C19.1968645,22.4192056 19.4919575,22.6809563 19.6520891,22.9508269 C19.8117414,23.2211752 19.8915675,23.5316459 19.8915675,23.8805671 L19.8915675,23.9753801 C19.8915675,24.7066579 19.5633934,25.2717145 18.9094425,25.6681617 C18.2535738,26.0653253 17.3033313,26.2637877 16.0572766,26.2637877 C15.7768065,26.2637877 15.500891,26.2415771 15.2232974,26.2279641 C12.2750046,26.0808488 9.48564488,25.1556462 6.85473883,23.4485353 C6.28900413,23.0814634 5.72758436,22.6917033 5.17647247,22.2525068 L0,28.4263352 C0.709565551,29.0611283 1.45868459,29.6376484 2.24136416,30.1640156 C3.7484718,31.1782994 5.38814354,31.9953148 7.16589291,32.6067032 C8.13794977,32.9408174 9.13062239,33.2125986 10.141993,33.4265846 C11.9401184,33.8070305 13.7993719,34 15.7214316,34 C17.7662269,34 19.6197272,33.7535341 21.2819324,33.2610798 C22.9429391,32.7683868 24.3651865,32.0538266 25.5479556,31.1157276 C26.7295261,30.1788227 27.6483655,29.0422612 28.3035151,27.7077151 C28.9581852,26.3736465 29.2863592,24.8475638 29.2863592,23.1318552 L29.2863592,23.0358481 C29.2863592,21.4796737 28.9989372,20.1367686 28.4236138,19.0083272 C27.8482904,17.8801246 27.0169481,16.9190985 25.9310251,16.1247713" id="Fill-142"></path>
                <path d="M69.8985833,23.1524179 C68.9723126,23.1524179 68.0858351,22.9957496 67.2396302,22.6824131 C66.3931856,22.3693154 65.6100266,21.887847 64.889434,21.2382469 L66.1587413,19.7343748 C66.7417357,20.2359043 67.3309628,20.6204103 67.9257034,20.8878927 C68.5202042,21.1558528 69.1950107,21.2898328 69.9498829,21.2898328 C70.6019161,21.2898328 71.1192278,21.1529869 71.5022973,20.8795339 C71.8853668,20.605842 72.0769016,20.2416361 72.0769016,19.785483 L72.0769016,19.7515701 C72.0769016,19.5351959 72.0397453,19.3443759 71.9651929,19.17911 C71.8908803,19.0140829 71.7530424,18.8571758 71.5526381,18.7088663 C71.3515146,18.5610345 71.076558,18.4241886 70.7268093,18.2988062 C70.3773003,18.1736627 69.9215962,18.0485191 69.359697,17.9228979 C68.7172525,17.7748273 68.1472029,17.6064567 67.6483495,17.4185025 C67.1497359,17.2305483 66.7311881,17.0029495 66.3931856,16.7349894 C66.0547037,16.467507 65.7965273,16.139841 65.6191359,15.7522304 C65.4410254,15.3650973 65.3525694,14.8974808 65.3525694,14.3508136 L65.3525694,14.3166618 C65.3525694,13.8039076 65.4544496,13.3339028 65.6586894,12.9068862 C65.8629292,12.4796308 66.1433994,12.1149472 66.500819,11.8128354 C66.857999,11.5109624 67.2875738,11.274527 67.7900229,11.1037681 C68.2919926,10.9325316 68.8404676,10.8472716 69.4352082,10.8472716 C70.3156927,10.8472716 71.1077213,10.9752811 71.8110542,11.2317776 C72.5143871,11.4880353 73.1748104,11.8613166 73.7923242,12.3511437 L72.6603754,13.9407535 C72.111421,13.5419181 71.5682198,13.2371792 71.0305321,13.026298 C70.4930841,12.8156556 69.9498829,12.7100956 69.4009285,12.7100956 C68.783175,12.7100956 68.3030196,12.8469415 67.9602228,13.1203945 C67.6169465,13.3936087 67.445548,13.7301111 67.445548,14.1287076 L67.445548,14.1628594 C67.445548,14.3909359 67.4853412,14.5932195 67.5656468,14.7694713 C67.6457126,14.9464396 67.7919407,15.1059738 68.0043309,15.247835 C68.2162417,15.3906515 68.5084581,15.5246315 68.8812197,15.649775 C69.2537416,15.7751574 69.7269451,15.9062716 70.3003508,16.0426398 C70.9308094,16.2026516 71.4900717,16.3789034 71.9769391,16.5725894 C72.464286,16.7662753 72.868211,17.0029495 73.1894332,17.2821342 C73.5106555,17.561319 73.7539693,17.8858803 73.9203337,18.2560568 C74.086698,18.6264722 74.1701199,19.0565935 74.1701199,19.5464206 L74.1701199,19.5803336 C74.1701199,20.1391808 74.0648837,20.6402326 73.8551304,21.0846833 C73.6448976,21.5288952 73.3531607,21.9050423 72.978721,22.2126471 C72.6047608,22.5202519 72.1548099,22.7538214 71.6295876,22.9133555 C71.1041255,23.0726508 70.5271241,23.1524179 69.8985833,23.1524179" id="Fill-144"></path>
                <path d="M81.7008398,23.1866891 C80.7745691,23.1866891 79.9278848,23.0242891 79.1619855,22.699489 C78.3956068,22.3746889 77.73806,21.9335818 77.1891056,21.3752122 C76.6399115,20.8168427 76.2115352,20.1646155 75.9025386,19.4182918 C75.5937817,18.6719681 75.4394033,17.8771632 75.4394033,17.0338771 L75.4394033,16.9999642 C75.4394033,16.1569169 75.5937817,15.362112 75.9025386,14.6157883 C76.2115352,13.8694646 76.6459044,13.2141327 77.2063653,12.6502703 C77.7663468,12.0864078 78.4298865,11.63933 79.1960255,11.3087982 C79.9624042,10.9785052 80.8088488,10.8132393 81.7348798,10.8132393 C82.6613902,10.8132393 83.5073554,10.9754005 84.2739738,11.2999617 C85.0401128,11.6250006 85.6978993,12.0663466 86.246614,12.6247161 C86.7958081,13.1830857 87.2246638,13.8355517 87.5334207,14.5816366 C87.8421776,15.3277214 87.9965561,16.1227652 87.9965561,16.9655736 L87.9965561,16.9999642 C87.9965561,17.8432502 87.8421776,18.6378163 87.5334207,19.38414 C87.2246638,20.1304637 86.7898152,20.7855568 86.2293543,21.3496581 C85.6688934,21.9135206 85.0055934,22.3608371 84.2396941,22.6911302 C83.4733154,23.0214232 82.6271105,23.1866891 81.7008398,23.1866891 M81.7348798,21.2555616 C82.3272232,21.2555616 82.8711435,21.1445086 83.3661614,20.9221639 C83.8616587,20.7000579 84.28572,20.3981849 84.638585,20.0165449 C84.9916898,19.6346659 85.2680847,19.1873494 85.4672905,18.6745951 C85.6667359,18.1618409 85.7664586,17.6151737 85.7664586,17.0338771 L85.7664586,16.9999642 C85.7664586,16.4186676 85.6667359,15.8693733 85.4672905,15.3504097 C85.2680847,14.8321625 84.9888132,14.3822189 84.6301949,14.0005788 C84.2715766,13.6189387 83.8415224,13.3141998 83.3405116,13.0861233 C82.8395007,12.8582856 82.2927038,12.7443667 81.7008398,12.7443667 C81.1082567,12.7443667 80.5645761,12.8554197 80.0695582,13.0775256 C79.5740609,13.2998704 79.1495202,13.6017434 78.7966551,13.9833835 C78.4437901,14.3650236 78.1676349,14.8121013 77.9684291,15.3248556 C77.7689837,15.8376098 77.6692609,16.3847546 77.6692609,16.9655736 L77.6692609,16.9999642 C77.6692609,17.581022 77.7689837,18.1307938 77.9684291,18.649041 C78.1676349,19.1677658 78.4466667,19.6177095 78.8055247,19.9993496 C79.1639032,20.3809896 79.5939575,20.6857285 80.095208,20.9135662 C80.5962188,21.1416428 81.1427761,21.2555616 81.7348798,21.2555616" id="Fill-146"></path>
            </g>
            <polygon id="Fill-149" points="89.8663811 11.0182932 91.9591201 11.0182932 91.9591201 21.0847072 98.2723357 21.0847072 98.2723357 22.9816829 89.8663811 22.9816829"></polygon>
            <path d="M104.722119,23.1695654 C103.944234,23.1695654 103.240901,23.0585125 102.61188,22.8364065 C101.98286,22.6140618 101.445652,22.2809029 100.999297,21.8364522 C100.553181,21.3922403 100.210385,20.8427073 99.9701871,20.1873754 C99.7302293,19.5322823 99.6101305,18.7716292 99.6101305,17.9056549 L99.6101305,11.0182215 L101.70263,11.0182215 L101.70263,17.8203948 C101.70263,18.9368951 101.972792,19.7856741 102.513596,20.3669707 C103.05416,20.9477897 103.801601,21.238438 104.756159,21.238438 C105.69921,21.238438 106.441137,20.9592532 106.981702,20.4008836 C107.522266,19.8427529 107.792908,19.0111692 107.792908,17.9056549 L107.792908,11.0182215 L109.885407,11.0182215 L109.885407,17.8031995 C109.885407,18.6918621 109.762431,19.4723376 109.51672,20.1446259 C109.27053,20.8169143 108.925096,21.3781497 108.478981,21.8280934 C108.032865,22.2782758 107.492541,22.6140618 106.857767,22.8364065 C106.222994,23.0585125 105.511271,23.1695654 104.722119,23.1695654" id="Fill-150"></path>
            <polygon id="Fill-152" points="115.048934 12.9663772 111.240533 12.9663772 111.240533 11.0182932 120.984354 11.0182932 120.984354 12.9663772 117.175953 12.9663772 117.175953 22.9816829 115.048934 22.9816829"></polygon>
            <polygon id="Fill-153" points="122.648238 22.9817785 124.740977 22.9817785 124.740977 11.0183887 122.648238 11.0183887"></polygon>
            <path d="M133.009453,23.1866891 C132.083182,23.1866891 131.236498,23.0242891 130.470599,22.699489 C129.70422,22.3746889 129.046673,21.9335818 128.497719,21.3752122 C127.948764,20.8168427 127.520148,20.1646155 127.211152,19.4182918 C126.902395,18.6719681 126.748016,17.8771632 126.748016,17.0338771 L126.748016,16.9999642 C126.748016,16.1569169 126.902395,15.362112 127.211152,14.6157883 C127.520148,13.8694646 127.954517,13.2141327 128.514978,12.6502703 C129.07496,12.0864078 129.7385,11.63933 130.504639,11.3087982 C131.271017,10.9785052 132.117462,10.8132393 133.043493,10.8132393 C133.970003,10.8132393 134.815968,10.9754005 135.582587,11.2999617 C136.348726,11.6250006 137.006512,12.0663466 137.555227,12.6247161 C138.104421,13.1830857 138.533277,13.8355517 138.842034,14.5816366 C139.150791,15.3277214 139.305169,16.1227652 139.305169,16.9655736 L139.305169,16.9999642 C139.305169,17.8432502 139.150791,18.6378163 138.842034,19.38414 C138.533277,20.1304637 138.098428,20.7855568 137.537967,21.3496581 C136.977506,21.9135206 136.314206,22.3608371 135.548307,22.6911302 C134.781928,23.0214232 133.935724,23.1866891 133.009453,23.1866891 M133.043493,21.2555616 C133.635836,21.2555616 134.179757,21.1445086 134.674774,20.9221639 C135.170272,20.7000579 135.594333,20.3981849 135.947198,20.0165449 C136.300303,19.6346659 136.576698,19.1873494 136.775904,18.6745951 C136.975349,18.1618409 137.075072,17.6151737 137.075072,17.0338771 L137.075072,16.9999642 C137.075072,16.4186676 136.975349,15.8693733 136.775904,15.3504097 C136.576698,14.8321625 136.297426,14.3822189 135.938808,14.0005788 C135.58019,13.6189387 135.150135,13.3141998 134.649125,13.0861233 C134.148114,12.8582856 133.601317,12.7443667 133.009453,12.7443667 C132.41687,12.7443667 131.873189,12.8554197 131.378171,13.0775256 C130.882674,13.2998704 130.458373,13.6017434 130.105268,13.9833835 C129.752403,14.3650236 129.476248,14.8121013 129.277042,15.3248556 C129.077597,15.8376098 128.977874,16.3847546 128.977874,16.9655736 L128.977874,16.9999642 C128.977874,17.581022 129.077597,18.1307938 129.277042,18.649041 C129.476248,19.1677658 129.75528,19.6177095 130.114138,19.9993496 C130.472516,20.3809896 130.902331,20.6857285 131.403821,20.9135662 C131.904832,21.1416428 132.451389,21.2555616 133.043493,21.2555616" id="Fill-154"></path>
            <polygon id="Fill-156" points="141.175018 11.0182932 143.126563 11.0182932 149.546453 19.289948 149.546453 11.0182932 151.639192 11.0182932 151.639192 22.9816829 149.875826 22.9816829 143.267757 14.4704881 143.267757 22.9816829 141.175018 22.9816829"></polygon>
            <path d="M154.040664,11.0182932 L159.39261,11.0182932 C160.147722,11.0182932 160.816775,11.1238532 161.40001,11.3342568 C161.983244,11.5453768 162.469152,11.8386522 162.858215,12.2145605 C163.177999,12.5450924 163.424189,12.9264936 163.595588,13.3597196 C163.767465,13.7929456 163.853045,14.2713092 163.853045,14.7950493 L163.853045,14.8294399 C163.853045,15.3195059 163.781369,15.7606131 163.638497,16.1539555 C163.495625,16.5470591 163.298097,16.8947863 163.046873,17.1964205 C162.795169,17.4985323 162.494802,17.7545512 162.146252,17.9656712 C161.796983,18.1765524 161.411276,18.3389525 160.988174,18.4526325 L164.230361,22.9816829 L161.742806,22.9816829 L158.783247,18.8115843 L158.749207,18.8115843 L156.133403,18.8115843 L156.133403,22.9816829 L154.040664,22.9816829 L154.040664,11.0182932 Z M159.23104,16.9485216 C159.98783,16.9485216 160.590242,16.7686874 161.037556,16.4080638 C161.48511,16.047679 161.708766,15.5585683 161.708766,14.9407317 L161.708766,14.9063411 C161.708766,14.2541139 161.490623,13.7592714 161.054816,13.4215749 C160.618768,13.0841172 160.00509,12.9152689 159.213541,12.9152689 L156.133403,12.9152689 L156.133403,16.9485216 L159.23104,16.9485216 Z" id="Fill-157"></path>
            <polygon id="Fill-159" points="165.757174 11.0182932 174.643283 11.0182932 174.643283 12.9152689 167.849913 12.9152689 167.849913 15.9915555 173.871152 15.9915555 173.871152 17.8885312 167.849913 17.8885312 167.849913 21.0847072 174.728863 21.0847072 174.728863 22.9816829 165.757174 22.9816829"></polygon>
            <path d="M180.818757,10.9326033 L182.774377,10.9326033 L188.058004,22.9817307 L185.827906,22.9817307 L184.609899,20.0931595 L178.931936,20.0931595 L177.696669,22.9817307 L175.535131,22.9817307 L180.818757,10.9326033 Z M183.838007,18.2305743 L181.762288,13.4450274 L179.703828,18.2305743 L183.838007,18.2305743 Z" id="Fill-160"></path>
            <path d="M195.022773,23.1866891 C194.142289,23.1866891 193.330124,23.0269161 192.586998,22.7083255 C191.843392,22.3892572 191.198551,21.9536429 190.651993,21.4007663 C190.105196,20.8481286 189.67658,20.1956625 189.365187,19.4438459 C189.054032,18.6917904 188.898695,17.8886267 188.898695,17.0338771 L188.898695,16.9999642 C188.898695,16.1452146 189.051156,15.3449167 189.356796,14.598593 C189.661958,13.8525082 190.090813,13.1974151 190.643124,12.633075 C191.195434,12.0694513 191.849145,11.6250006 192.604018,11.2999617 C193.35865,10.9754005 194.193588,10.8132393 195.108592,10.8132393 C195.657547,10.8132393 196.157599,10.8588546 196.609707,10.9496075 C197.061336,11.0413158 197.475808,11.1693252 197.853125,11.3343523 C198.23092,11.4996182 198.579471,11.6964089 198.899734,11.9240077 C199.219758,12.1520843 199.522761,12.4026102 199.808745,12.6758244 L198.453858,14.2312824 C197.973223,13.7868317 197.464542,13.4278798 196.926854,13.1546657 C196.389406,12.8809738 195.777645,12.7443667 195.091333,12.7443667 C194.519605,12.7443667 193.990547,12.8554197 193.504399,13.0775256 C193.01849,13.2998704 192.598264,13.6017434 192.243721,13.9833835 C191.889178,14.3650236 191.614701,14.8121013 191.42029,15.3248556 C191.225639,15.8376098 191.128553,16.3847546 191.128553,16.9655736 L191.128553,16.9999642 C191.128553,17.581022 191.225639,18.1307938 191.42029,18.649041 C191.614701,19.1677658 191.889178,19.6205754 192.243721,20.0077084 C192.598264,20.3953191 193.01849,20.7000579 193.504399,20.9221639 C193.990547,21.1445086 194.519605,21.2555616 195.091333,21.2555616 C195.823192,21.2555616 196.452452,21.1160886 196.978393,20.8369039 C197.504575,20.5577191 198.025003,20.1789449 198.539677,19.7001036 L199.894564,21.0676074 C199.585807,21.3981393 199.262667,21.6911758 198.925384,21.9476723 C198.5881,22.2039301 198.224927,22.4262748 197.836344,22.614229 C197.447282,22.8021831 197.021303,22.9447608 196.558407,23.0414844 C196.095032,23.1382079 195.582994,23.1866891 195.022773,23.1866891" id="Fill-161"></path>
            <polygon id="Fill-163" points="201.404141 11.0182932 203.49688 11.0182932 203.49688 15.9915555 209.260901 15.9915555 209.260901 11.0182932 211.35364 11.0182932 211.35364 22.9816829 209.260901 22.9816829 209.260901 17.9401171 203.49688 17.9401171 203.49688 22.9816829 201.404141 22.9816829"></polygon>
            <path d="M213.597306,12.0920918 C213.597306,11.8800164 213.650523,11.6808376 213.756958,11.4952716 C213.863632,11.3097057 214.0101,11.163068 214.196361,11.0558363 C214.382862,10.9488433 214.583506,10.895108 214.798773,10.895108 C215.011642,10.895108 215.211327,10.9483656 215.397828,11.0544033 C215.584089,11.160441 215.731036,11.3063622 215.83867,11.4919281 C215.946303,11.6777329 216,11.877867 216,12.0920918 C216,12.3010624 215.948461,12.4973754 215.845142,12.6810307 C215.741824,12.8646861 215.597034,13.0115626 215.410533,13.1218991 C215.224272,13.2322356 215.020272,13.2874038 214.798773,13.2874038 C214.578232,13.2874038 214.374711,13.2324744 214.18845,13.1226155 C214.00195,13.0129955 213.85692,12.866119 213.753122,12.6827025 C213.649324,12.4990472 213.597306,12.3022565 213.597306,12.0920918 L213.597306,12.0920918 Z M213.745931,12.0920918 C213.745931,12.2810012 213.792916,12.4558201 213.887364,12.6165484 C213.981574,12.7772766 214.109583,12.9050473 214.271393,12.9993826 C214.433442,13.0937179 214.609156,13.141005 214.798773,13.141005 C214.98815,13.141005 215.163624,13.0939567 215.325194,13.000099 C215.486524,12.9062414 215.614533,12.7787096 215.709222,12.6172648 C215.80415,12.4560589 215.851615,12.2810012 215.851615,12.0920918 C215.851615,11.9074811 215.806068,11.7350505 215.714975,11.5747999 C215.623882,11.4145493 215.496592,11.2855845 215.333104,11.1881445 C215.169617,11.0904657 214.991506,11.0415068 214.798773,11.0415068 C214.611313,11.0415068 214.436319,11.0885551 214.27379,11.1824128 C214.111501,11.2762704 213.982772,11.4049963 213.888084,11.5683517 C213.793155,11.7319458 213.745931,11.9065259 213.745931,12.0920918 L213.745931,12.0920918 Z M215.226909,11.7945176 C215.226909,11.8783447 215.206293,11.95238 215.165302,12.0163847 C215.12431,12.0806282 215.065579,12.1307812 214.988869,12.1668436 L215.367384,12.7923225 L215.174171,12.7923225 L214.838566,12.2193847 L214.570321,12.2193847 L214.570321,12.7923225 L214.408751,12.7923225 L214.408751,11.391861 L214.746035,11.391861 C214.898256,11.391861 215.016437,11.4245799 215.100578,11.4904952 C215.184719,11.5561717 215.226909,11.6576717 215.226909,11.7945176 L215.226909,11.7945176 Z M214.570321,12.0920918 L214.749151,12.0920918 C214.845997,12.0920918 214.922227,12.0674929 214.977602,12.0180565 C215.032977,11.9688588 215.060785,11.8967341 215.060785,11.8023988 C215.060785,11.6199376 214.955788,11.5287069 214.746035,11.5287069 L214.570321,11.5287069 L214.570321,12.0920918 Z" id="Fill-164"></path>
        </g>
    </g>
</svg>