<svg xmlns="http://www.w3.org/2000/svg" width="141.282" height="75.37" viewBox="0 0 141.282 75.37"><g data-name="Group 342"><path data-name="Path 148" d="m456.491 102.478-6.134 14.511h-.043l-2.907-6.928-2.85 6.922h-.04l-6.254-14.508 2.116-.332 4.262 10.131 1.674-4.2-2.4-5.6 1.926-.327 1.547 3.677 1.487-3.679 1.906.335-2.325 5.6 1.8 4.422 4.124-10.354z" style="fill:#fff" transform="translate(-411.428 -41.63)"></path><path data-name="Path 149" d="M458.391 116.823v-14.342l2.048-.333v14.509z" style="fill:#fff" transform="translate(-411.428 -41.63)"></path><path data-name="Path 150" d="M464.078 116.907v-14.759h.045l9.205 9.92v-9.256l2.052-.335v14.514h-.045l-9.2-9.922v9.59z" style="fill:#fff" transform="translate(-411.428 -41.63)"></path><path data-name="Path 151" d="m479.1 116.66.009-14.179h7.655l.439 1.861-6.048-.006v4.012h4.833v1.863h-4.828v4.589l6.5.006-.586 1.857z" style="fill:#fff" transform="translate(-411.428 -41.63)"></path><path data-name="Path 152" d="M495.093 102.486h4.329a3.8 3.8 0 0 1 3.916 3.738 3.585 3.585 0 0 1-1.88 3.04 3.52 3.52 0 0 1 2.381 3.472c0 2.809-2.094 3.929-4.563 3.929h-4.189zm2.052 6.078h1.883a2.2 2.2 0 0 0 2.261-2.34c0-1.277-.777-1.959-2.261-1.959h-1.883zm0 6.325h1.88c1.636 0 2.759-.557 2.762-2.15 0-1.754-1.073-2.483-2.759-2.483h-1.883z" style="fill:#fff" transform="translate(-411.428 -41.63)"></path><path data-name="Path 153" d="m505.109 116.584 7.288-14.425h.045l7.3 14.428-2.055.413-2.446-4.878h-5.782L507.034 117zm9.295-6.323-2.047-4.07-2.032 4.068z" style="fill:#fff" transform="translate(-411.428 -41.63)"></path><path data-name="Path 154" d="M521.6 116.915v-14.423h3.538c2.134 0 4.707 1.077 4.7 4.3 0 2.111-1.216 3.265-3.175 3.7l4.337 5.931-2.3.577-5-7.215h-.048v6.886zm2.049-7.583h1.464a2.575 2.575 0 0 0 2.685-2.542c-.008-1.672-1.089-2.438-2.685-2.438h-1.464z" style="fill:#fff" transform="translate(-411.428 -41.63)"></path><path data-name="Path 155" d="M431.97 49.289c.116-.78.046-1.252-.22-1.425a2.007 2.007 0 0 0-1.383-.042l-.146-.677 5.234-1.1.147.676a4.359 4.359 0 0 0-1.974.892 2.717 2.717 0 0 0-.913 1.66l-1.848 12.687a2.162 2.162 0 0 0 .042 1.28.8.8 0 0 0 .767.317 2.5 2.5 0 0 0 .367-.041l.357-.075.072-.017.142.677-10.2 2.147-.149-.676c1.062-.27 1.532-.688 1.413-1.248a1.986 1.986 0 0 0-.4-.73l-8.568-10.529a5.029 5.029 0 0 0-1.557-1.26 2.816 2.816 0 0 0-1.585-.022l-.138-.674 6.163-1.3a1.756 1.756 0 0 1 1.281.4 7.878 7.878 0 0 1 1.524 1.512L429 62.247a3.42 3.42 0 0 0 .763.721 2.707 2.707 0 0 0 .358-.992z" style="fill:#fff" transform="translate(-411.428 -41.63)"></path><path data-name="Path 156" d="m437.563 44.934 11.048-1.417.1.688c-1.8.251-2.885 1.056-2.664 2.577l1.609 11.071q.334 2.308 3.034 1.935l.1.691-10.754 1.493-.1-.69q2.7-.375 2.362-2.686l-1.609-11.07q-.332-2.28-3.026-1.9z" style="fill:#fff" transform="translate(-411.428 -41.63)"></path><path data-name="Path 157" d="m450.719 43.454 10.532-.829c.318-.1.67-.178 1.051-.253a10.542 10.542 0 0 1 1.274-.171c1.324-.106 2.376-.144 3.16-.127a6.885 6.885 0 0 1 1.793.221q3.064 1.086 3.4 5.249l.662 8.305c.116 1.514 1.056 2.2 2.83 2.062l.058.692-10.576.828-.051-.686c1.747-.142 2.553-.961 2.437-2.482l-.754-9.443a4.233 4.233 0 0 0-1.145-2.856 3.535 3.535 0 0 0-2.833-.778 6.2 6.2 0 0 0-3.415 1.166 2.5 2.5 0 0 0-.273 1.441l.881 11.061c.121 1.542 1.07 2.237 2.832 2.1l.053.687-10.568.828-.05-.689c1.763-.138 2.586-.982 2.467-2.518l-.88-11.06q-.184-2.271-2.834-2.066z" style="fill:#fff" transform="translate(-411.428 -41.63)"></path><path data-name="Path 158" d="m474.83 41.648 19.7-.018.559 4.841-.669.066a4.492 4.492 0 0 0-4.719-4.21q-2.351.174-2.343 2.282v11.1q0 2.317 2.66 2.31v.691l-10.6.014v-.692c1.77 0 2.66-.774 2.661-2.319V44.619c0-1.4-.794-2.165-2.381-2.281q-4.2.185-4.762 4.224l-.663-.065z" style="fill:#fff" transform="translate(-411.428 -41.63)"></path><path data-name="Path 159" d="M504.707 41.969c1.325.079 2.376.186 3.153.313a7.014 7.014 0 0 1 1.74.469c1.923.995 2.792 2.889 2.62 5.666l-.526 8.32c-.1 1.514.74 2.332 2.508 2.435l-.042.692-11-.676a40.242 40.242 0 0 1-4.039-.418 10.7 10.7 0 0 1-2.873-.819 3.827 3.827 0 0 1-1.674-1.362 3.444 3.444 0 0 1-.451-2.073 3.85 3.85 0 0 1 .574-1.747 4.161 4.161 0 0 1 1.486-1.384 8.007 8.007 0 0 1 2.462-.833 13.8 13.8 0 0 1 3.427-.154l4.676.286.235-3.725a4.232 4.232 0 0 0-.716-2.989 3.547 3.547 0 0 0-2.7-1.172 6.378 6.378 0 0 0-3.676.778 4.663 4.663 0 0 0-2.077 3.132l-1.043-.065 1.266-3.938.207.047a2.371 2.371 0 0 0 .487.065 3.214 3.214 0 0 0 1.081-.125c.364-.106.777-.216 1.243-.34s.985-.228 1.584-.322a10.276 10.276 0 0 1 2.071-.061m-5.271 12.874a5.138 5.138 0 0 0 .131 1.738 2.236 2.236 0 0 0 .686 1.081 2.911 2.911 0 0 0 1.207.594 9.677 9.677 0 0 0 1.74.245l.417.027c1.746.1 2.674-.6 2.765-2.118l.318-5.041-1.743-.1a7.812 7.812 0 0 0-4.02.671 3.3 3.3 0 0 0-1.5 2.907" style="fill:#fff" transform="translate(-411.428 -41.63)"></path><path data-name="Path 160" d="M522.8 60.6c.325.04.64.072.945.089a5.258 5.258 0 0 0 .882-.021l.626-4.557q.3-2.263-2.331-2.608l.095-.687L533.53 54.2l-.1.685q-2.633-.345-2.939 1.914l-.707 5.176-5.24-.693c-.258.011-.542.019-.849.026a6.721 6.721 0 0 1-.977-.061q-4.406-.58-6.463-3.122-2.027-2.5-1.448-6.747a8.685 8.685 0 0 1 3.237-6.162 9.947 9.947 0 0 1 7.1-1.3 7.041 7.041 0 0 1 1.525.359c.441.165.829.323 1.178.485s.66.314.972.464a3.39 3.39 0 0 0 .987.285 2.669 2.669 0 0 0 .49.029l.215-.011.458 4.112-1.035-.139a4.6 4.6 0 0 0-1.425-3.463 6.279 6.279 0 0 0-3.445-1.47c-1.9-.248-3.155.3-3.762 1.666a24.914 24.914 0 0 0-1.283 5.831c-.445 3.218-.547 5.239-.335 6.058a3.445 3.445 0 0 0 3.127 2.437z" style="fill:#fff" transform="translate(-411.428 -41.63)"></path><path data-name="Path 161" d="M544.2 64.143q4.311.906 5.824-3.085l.637.207-1.58 4.617-17.86-3.769.145-.676c1.74.366 2.771-.21 3.1-1.717l2.349-10.85q.484-2.23-2.115-2.777l.148-.678 17.861 3.768-.476 4.847-.669-.071q.271-4.255-4.034-5.163l-2.461-.519c-1.73-.369-2.761.2-3.091 1.681l-1.031 4.768 7.572 1.595-.162.676-3.144-.665q-3.283-.693-4.926 1.433l-.658 3.046c-.326 1.507.373 2.451 2.109 2.811z" style="fill:#fff" transform="translate(-411.428 -41.63)"></path><path data-name="Path 162" d="m425.7 70.012 10.453-1.8.119.685c-1.752.3-2.491 1.2-2.227 2.7l1.925 10.923q.385 2.183 2.746 1.88l2.757-.474q4.347-.75 4.233-5.01l.666-.041.288 4.859-17.993 3.1-.12-.681c1.743-.3 2.485-1.211 2.215-2.73l-1.916-10.933c-.271-1.5-1.276-2.1-3.022-1.8z" style="fill:#fff" transform="translate(-411.428 -41.63)"></path><path data-name="Path 163" d="m446.131 65.932 10.524-1.232.083.686q-2.642.312-2.373 2.576l1.307 11.019c.183 1.535 1.148 2.2 2.915 1.994l.079.687-10.531 1.228-.083-.692c1.762-.2 2.552-1.071 2.374-2.6l-1.313-11.025c-.174-1.507-1.142-2.164-2.9-1.957z" style="fill:#fff" transform="translate(-411.428 -41.63)"></path><path data-name="Path 164" d="M482.669 87.8a2.435 2.435 0 0 1-1.624-.47 6.059 6.059 0 0 1-1.389-1.351 13.844 13.844 0 0 1-1.164-1.795q-.539-.969-.943-1.809c-.191-.379-.36-.732-.524-1.058a2.99 2.99 0 0 0-.576-.812 2.266 2.266 0 0 0-.842-.5 3.323 3.323 0 0 0-1.3-.123c-.165.006-.371.019-.612.034s-.515.046-.818.09a7.635 7.635 0 0 0 2.007-1.48 8.609 8.609 0 0 0 1.956-6.673q-.273-4.266-2.755-6.332-2.527-2.1-6.954-1.81l-.457.025-.416.03a9.862 9.862 0 0 0-6.707 2.639 8.623 8.623 0 0 0-1.953 6.67q.267 4.281 2.76 6.337c1.67 1.4 3.995 2 6.949 1.808l.416-.022.459-.033a14.077 14.077 0 0 0 1.74-.212 1.792 1.792 0 0 1 1.121.535 6.2 6.2 0 0 1 .853 1.246l1.758 3.094a7.523 7.523 0 0 0 1.528 1.946 4.34 4.34 0 0 0 2.08.954 14.182 14.182 0 0 0 3.409.1c.39-.029.724-.057.991-.083a5.194 5.194 0 0 0 1.054-.258zm-19.728-21.015a2.641 2.641 0 0 1 .329-.852 4.194 4.194 0 0 1 1.513-1.013 8.08 8.08 0 0 1 1.935-.486 5.937 5.937 0 0 1 3.09.669 5.363 5.363 0 0 1 .488.489 4.421 4.421 0 0 1 .425.6q.563 1.144.877 6a25.14 25.14 0 0 1-.1 5.966 5.921 5.921 0 0 1-.128.477 1.48 1.48 0 0 1-.2.414 5.606 5.606 0 0 1-3.483 1.5 6.107 6.107 0 0 1-3.062-.743 3.465 3.465 0 0 1-.907-1.047q-.562-1.142-.88-6a24.825 24.825 0 0 1 .112-5.965" style="fill:#fff" transform="translate(-411.428 -41.63)"></path><path data-name="Path 165" d="M490.336 80.652a9.894 9.894 0 0 1-1.507-.117 9.736 9.736 0 0 1-1.5.088c-1.329-.012-2.385-.064-3.167-.149a7.266 7.266 0 0 1-1.762-.374q-2.959-1.341-2.918-5.525l.085-8.329c.015-1.521-.86-2.286-2.637-2.307l.005-.691 10.606.1v.689q-2.628-.02-2.659 2.258l-.089 9.473a4.029 4.029 0 0 0 .953 3.014 5.732 5.732 0 0 0 3.1.964 5.947 5.947 0 0 0 3.054-.846 4 4 0 0 0 1.072-3.067l.1-9.471c.016-1.52-.852-2.292-2.6-2.307l.006-.686 10.6.1-.006.691c-1.776-.016-2.663.733-2.685 2.255l-.081 8.331c-.028 2.79-1.035 4.613-3.037 5.469a6.689 6.689 0 0 1-1.766.343c-.785.076-1.842.105-3.168.094" style="fill:#fff" transform="translate(-411.428 -41.63)"></path><path data-name="Path 166" d="M518.56 67.028q-2.183-2.436-6.61-2.8l-.451-.039-.421-.033a9.876 9.876 0 0 0-7.024 1.63 8.64 8.64 0 0 0-2.933 6.311q-.371 4.272 1.773 6.67 2.181 2.435 6.61 2.806l.418.036.453.039a9.914 9.914 0 0 0 7.024-1.629 8.63 8.63 0 0 0 2.93-6.314q.372-4.271-1.769-6.673m-12.212 5.5a24.972 24.972 0 0 1 1-5.882 2.505 2.505 0 0 1 .459-.793 3.983 3.983 0 0 1 1.647-.782 7.886 7.886 0 0 1 1.975-.2 5.98 5.98 0 0 1 2.969 1.113 6.156 6.156 0 0 1 .4.556 4.215 4.215 0 0 1 .33.651q.381 1.212-.03 6.07a25.571 25.571 0 0 1-1 5.88c-.063.16-.135.314-.2.455a1.3 1.3 0 0 1-.262.38 5.64 5.64 0 0 1-3.662.972 6.062 6.062 0 0 1-2.9-1.176 3.419 3.419 0 0 1-.752-1.178c-.258-.805-.254-2.826.027-6.067" style="fill:#fff" transform="translate(-411.428 -41.63)"></path><path data-name="Path 167" d="m521.924 66.285 12.263 1.994a14.109 14.109 0 0 1 3.3.909 7.782 7.782 0 0 1 2.2 1.353 4.106 4.106 0 0 1 1.135 1.675 3.641 3.641 0 0 1 .157 1.825 3.177 3.177 0 0 1-1.336 2.272 5.912 5.912 0 0 1-3.006.775 2.064 2.064 0 0 1 .707 1.078c.123.429.254.925.387 1.48.137.607.312 1.267.507 1.971a13.852 13.852 0 0 0 .731 2.015 5.99 5.99 0 0 0 1.038 1.621 2.485 2.485 0 0 0 1.481.82l-.119.681a5.512 5.512 0 0 1-1.084.017c-.265-.034-.594-.076-.985-.146a14.31 14.31 0 0 1-3.3-.848 4.254 4.254 0 0 1-1.806-1.4 7.2 7.2 0 0 1-1.046-2.235c-.263-.892-.6-2.029-1.009-3.4a5.333 5.333 0 0 0-.6-1.466 2.09 2.09 0 0 0-1.116-.772l-2.1-.346-.882 5.284c-.257 1.53.489 2.428 2.241 2.715l-.115.681-10.467-1.7.119-.684c1.752.281 2.752-.335 3.012-1.86l1.821-10.944c.258-1.5-.491-2.4-2.237-2.679zm7.352 4.21-.84 4.979 2.625.425.969.155a3.855 3.855 0 0 0 2.479-.421 3.387 3.387 0 0 0 1.229-2.441 3.305 3.305 0 0 0-.685-3.02 6.663 6.663 0 0 0-3.341-1.559 2.054 2.054 0 0 0-2.436 1.882" style="fill:#fff" transform="translate(-411.428 -41.63)"></path><path data-name="Path 168" d="M501.944 98.21a4.179 4.179 0 0 1-3.51 1.728c-3.347 0-3.868-2.348-3.868-3.344 0-1.923 1.321-2.88 2.9-3.7-.692-.976-1.368-1.627-1.368-2.882a2.55 2.55 0 0 1 2.8-2.514c1.543 0 3 .839 3 2.5a3.864 3.864 0 0 1-2.328 3.169l2.241 2.691a6.481 6.481 0 0 0 .4-1.9h1.408a6.874 6.874 0 0 1-.836 3.015l2.412 2.759h-1.928zm-3.662-4.389c-1.165.648-2.153 1.3-2.156 2.756a2.239 2.239 0 0 0 2.365 2.075 3.121 3.121 0 0 0 2.637-1.456zm2.134-3.738a1.427 1.427 0 0 0-2.843 0c0 .737.653 1.453 1.191 2.12.715-.439 1.652-1.093 1.652-2.12" style="fill:#fff" transform="translate(-411.428 -41.63)"></path><path data-name="Line 13" transform="translate(25.486 53.734)" style="fill:#fff" d="M55.073.011 0 0"></path><path data-name="Rectangle 707" transform="translate(16.202 53.382)" style="fill:#fff" d="M0 0h64.356v.719H0z"></path><path data-name="Line 14" transform="translate(93.764 53.751)" style="fill:#fff" d="M26.647.003 0 0"></path><path data-name="Rectangle 708" transform="translate(93.765 53.668)" style="fill:#fff" d="M0 0h36.437v.445H0z"></path></g></svg>